<?xml version="1.0" standalone="no"?>
<!DOCTYPE svg PUBLIC "-//W3C//DTD SVG 20010904//EN"
 "http://www.w3.org/TR/2001/REC-SVG-20010904/DTD/svg10.dtd">
<svg version="1.0" xmlns="http://www.w3.org/2000/svg"
 width="190.000000pt" height="190.000000pt" viewBox="0 0 190.000000 190.000000"
 preserveAspectRatio="xMidYMid meet">
<metadata>
Created by potrace 1.11, written by Peter Selinger 2001-2013
</metadata>
<g transform="translate(0.000000,190.000000) scale(0.100000,-0.100000)"
fill="#000000" stroke="none">
<path d="M970 1660 c-57 -30 -95 -78 -169 -215 -39 -71 -74 -136 -78 -143 -6
-10 -18 -8 -58 10 -63 28 -207 31 -268 5 -45 -19 -193 -151 -213 -189 -20 -39
-18 -122 6 -167 20 -40 67 -86 107 -104 23 -10 22 -10 -17 -53 -67 -73 -66
-141 3 -210 42 -41 118 -74 174 -74 21 0 23 -4 23 -55 0 -96 62 -179 170 -229
68 -32 188 -36 265 -9 95 32 175 134 175 225 l0 27 74 -35 c53 -25 93 -37 143
-41 87 -7 132 7 173 53 26 30 30 43 30 91 l0 55 -80 82 c-44 45 -107 104 -140
131 l-60 50 42 19 c24 10 91 35 149 56 133 45 211 91 260 153 34 42 39 56 39
98 0 79 -32 124 -120 170 -42 22 -56 24 -206 24 l-161 0 14 32 c17 42 17 127
-1 161 -16 31 -61 74 -93 91 -35 18 -143 13 -183 -9z m167 -122 c18 -15 16
-35 -13 -119 -14 -41 -32 -103 -39 -138 -21 -95 -14 -98 121 -54 95 31 122 35
210 35 81 0 112 -4 148 -21 58 -25 60 -50 9 -99 -39 -36 -145 -92 -175 -92 -9
0 -19 -4 -22 -9 -3 -5 -27 -14 -53 -21 -27 -6 -61 -17 -78 -25 -16 -7 -67 -28
-113 -46 -46 -18 -88 -39 -95 -47 -13 -16 -14 -15 144 -144 155 -128 221 -195
217 -220 -3 -21 -8 -23 -64 -22 -56 1 -75 8 -197 70 -75 38 -139 66 -142 62
-4 -4 -11 -56 -15 -115 -5 -59 -13 -120 -18 -134 -22 -55 -125 -94 -206 -77
-136 29 -168 90 -124 238 19 64 19 70 4 85 -15 15 -20 15 -70 1 -30 -9 -71
-16 -93 -15 -45 1 -105 21 -110 36 -7 20 64 89 147 143 44 29 80 55 80 58 0
12 -45 42 -64 42 -27 1 -159 36 -184 49 -28 15 -47 67 -36 99 7 20 17 28 39
30 24 2 33 11 46 42 30 69 126 96 233 65 46 -14 69 -28 107 -68 27 -28 51 -49
53 -46 3 2 19 40 37 84 72 182 170 349 218 375 36 20 73 19 98 -2z"/>
</g>
</svg>
